<?xml version="1.0" encoding="UTF-8"?>
<svg xmlns="http://www.w3.org/2000/svg" xmlns:xlink="http://www.w3.org/1999/xlink" width="299px" height="282px" viewBox="0 0 299 282" version="1.1">
<defs>
<linearGradient id="linear0" gradientUnits="userSpaceOnUse" x1="0.31368" y1="0.70497" x2="1" y2="0.22772" gradientTransform="matrix(0,230.695312,181.347656,0,117.277344,51.085938)">
<stop offset="0" style="stop-color:rgb(60%,45.882353%,81.568627%);stop-opacity:1;"/>
<stop offset="1" style="stop-color:rgb(29.019608%,24.705882%,85.882353%);stop-opacity:1;"/>
</linearGradient>
</defs>
<g id="surface1">
<path style=" stroke:none;fill-rule:evenodd;fill:url(#linear0);" d="M 140.742188 58.800781 C 166.636719 31.882812 213.398438 79.726562 252.136719 134.375 C 290.878906 189.027344 317.292969 214.996094 283.457031 250.164062 C 249.621094 285.332031 177.398438 299.316406 140.742188 250.164062 C 104.082031 201.011719 114.84375 85.71875 140.742188 58.800781 Z M 140.742188 58.800781 "/>
<path style=" stroke:none;fill-rule:evenodd;fill:rgb(95.686275%,95.686275%,98.823529%);fill-opacity:1;" d="M 6.386719 130.710938 C -15.867188 109.324219 23.683594 70.703125 68.859375 38.707031 C 114.039062 6.707031 135.503906 -15.105469 164.578125 12.839844 C 193.652344 40.785156 205.214844 100.433594 164.578125 130.710938 C 123.945312 160.988281 28.636719 152.101562 6.386719 130.710938 Z M 6.386719 130.710938 "/>
<path style="fill:none;stroke-width:4;stroke-linecap:butt;stroke-linejoin:miter;stroke:rgb(82.745098%,38.431373%,61.568627%);stroke-opacity:1;stroke-miterlimit:4;" d="M 344.001698 45.085023 L 364.089256 24.999709 L 384.176813 45.085023 L 404.264371 24.999709 L 424.351928 45.085023 L 444.439486 24.999709 " transform="matrix(0.428981,0,0,0.429224,0,0)"/>
<path style="fill:none;stroke-width:4;stroke-linecap:butt;stroke-linejoin:miter;stroke:rgb(82.745098%,38.431373%,61.568627%);stroke-opacity:1;stroke-miterlimit:4;" d="M 344.001698 63.08627 L 364.089256 43.000956 L 384.176813 63.08627 L 404.264371 43.000956 L 424.351928 63.08627 L 444.439486 43.000956 " transform="matrix(0.428981,0,0,0.429224,0,0)"/>
<path style="fill:none;stroke-width:4;stroke-linecap:butt;stroke-linejoin:miter;stroke:rgb(82.745098%,38.431373%,61.568627%);stroke-opacity:1;stroke-miterlimit:4;" d="M 344.001698 81.087517 L 364.089256 61.002202 L 384.176813 81.087517 L 404.264371 61.002202 L 424.351928 81.087517 L 444.439486 61.002202 " transform="matrix(0.428981,0,0,0.429224,0,0)"/>
<path style="fill:none;stroke-width:4;stroke-linecap:butt;stroke-linejoin:miter;stroke:rgb(82.745098%,38.431373%,61.568627%);stroke-opacity:1;stroke-miterlimit:4;" d="M 344.001698 99.088763 L 364.089256 79.003449 L 384.176813 99.088763 L 404.264371 79.003449 L 424.351928 99.088763 L 444.439486 79.003449 " transform="matrix(0.428981,0,0,0.429224,0,0)"/>
<path style=" stroke:none;fill-rule:evenodd;fill:rgb(81.176471%,41.960784%,79.607843%);fill-opacity:1;" d="M 286.128906 274.703125 C 286.128906 273.992188 286.707031 273.414062 287.417969 273.414062 C 288.128906 273.414062 288.703125 273.992188 288.703125 274.703125 C 288.703125 275.414062 288.128906 275.992188 287.417969 275.992188 Z M 276.691406 274.703125 C 276.691406 273.992188 277.269531 273.414062 277.980469 273.414062 C 278.691406 273.414062 279.265625 273.992188 279.265625 274.703125 C 279.265625 275.414062 278.691406 275.992188 277.980469 275.992188 Z M 267.253906 274.703125 C 267.253906 273.992188 267.832031 273.414062 268.542969 273.414062 C 269.253906 273.414062 269.828125 273.992188 269.828125 274.703125 C 269.828125 275.414062 269.253906 275.992188 268.542969 275.992188 Z M 257.816406 274.703125 C 257.816406 273.992188 258.394531 273.414062 259.105469 273.414062 C 259.816406 273.414062 260.390625 273.992188 260.390625 274.703125 C 260.390625 275.414062 259.816406 275.992188 259.105469 275.992188 Z M 248.378906 274.703125 C 248.378906 273.992188 248.957031 273.414062 249.667969 273.414062 C 250.378906 273.414062 250.953125 273.992188 250.953125 274.703125 C 250.953125 275.414062 250.378906 275.992188 249.667969 275.992188 Z M 238.941406 274.703125 C 238.941406 273.992188 239.519531 273.414062 240.230469 273.414062 C 240.941406 273.414062 241.515625 273.992188 241.515625 274.703125 C 241.515625 275.414062 240.941406 275.992188 240.230469 275.992188 Z M 229.503906 274.703125 C 229.503906 273.992188 230.082031 273.414062 230.792969 273.414062 C 231.503906 273.414062 232.078125 273.992188 232.078125 274.703125 C 232.078125 275.414062 231.503906 275.992188 230.792969 275.992188 Z M 220.066406 274.703125 C 220.066406 273.992188 220.644531 273.414062 221.355469 273.414062 C 222.066406 273.414062 222.640625 273.992188 222.640625 274.703125 C 222.640625 275.414062 222.066406 275.992188 221.355469 275.992188 Z M 210.628906 274.703125 C 210.628906 273.992188 211.207031 273.414062 211.917969 273.414062 C 212.628906 273.414062 213.203125 273.992188 213.203125 274.703125 C 213.203125 275.414062 212.628906 275.992188 211.917969 275.992188 Z M 210.628906 265.261719 C 210.628906 264.550781 211.207031 263.972656 211.917969 263.972656 C 212.628906 263.972656 213.203125 264.550781 213.203125 265.261719 C 213.203125 265.972656 212.628906 266.546875 211.917969 266.546875 Z M 286.128906 265.261719 C 286.128906 264.550781 286.707031 263.972656 287.417969 263.972656 C 288.128906 263.972656 288.703125 264.550781 288.703125 265.261719 C 288.703125 265.972656 288.128906 266.546875 287.417969 266.546875 Z M 276.691406 265.261719 C 276.691406 264.550781 277.269531 263.972656 277.980469 263.972656 C 278.691406 263.972656 279.265625 264.550781 279.265625 265.261719 C 279.265625 265.972656 278.691406 266.546875 277.980469 266.546875 Z M 267.253906 265.261719 C 267.253906 264.550781 267.832031 263.972656 268.542969 263.972656 C 269.253906 263.972656 269.828125 264.550781 269.828125 265.261719 C 269.828125 265.972656 269.253906 266.546875 268.542969 266.546875 Z M 257.816406 265.261719 C 257.816406 264.550781 258.394531 263.972656 259.105469 263.972656 C 259.816406 263.972656 260.390625 264.550781 260.390625 265.261719 C 260.390625 265.972656 259.816406 266.546875 259.105469 266.546875 Z M 248.378906 265.261719 C 248.378906 264.550781 248.957031 263.972656 249.667969 263.972656 C 250.378906 263.972656 250.953125 264.550781 250.953125 265.261719 C 250.953125 265.972656 250.378906 266.546875 249.667969 266.546875 Z M 238.941406 265.261719 C 238.941406 264.550781 239.519531 263.972656 240.230469 263.972656 C 240.941406 263.972656 241.515625 264.550781 241.515625 265.261719 C 241.515625 265.972656 240.941406 266.546875 240.230469 266.546875 Z M 229.503906 265.261719 C 229.503906 264.550781 230.082031 263.972656 230.792969 263.972656 C 231.503906 263.972656 232.078125 264.550781 232.078125 265.261719 C 232.078125 265.972656 231.503906 266.546875 230.792969 266.546875 Z M 220.066406 265.261719 C 220.066406 264.550781 220.644531 263.972656 221.355469 263.972656 C 222.066406 263.972656 222.640625 264.550781 222.640625 265.261719 C 222.640625 265.972656 222.066406 266.546875 221.355469 266.546875 Z M 220.066406 255.816406 C 220.066406 255.105469 220.644531 254.53125 221.355469 254.53125 C 222.066406 254.53125 222.640625 255.105469 222.640625 255.816406 C 222.640625 256.527344 222.066406 257.105469 221.355469 257.105469 Z M 229.503906 255.816406 C 229.503906 255.105469 230.082031 254.53125 230.792969 254.53125 C 231.503906 254.53125 232.078125 255.105469 232.078125 255.816406 C 232.078125 256.527344 231.503906 257.105469 230.792969 257.105469 Z M 238.941406 255.816406 C 238.941406 255.105469 239.519531 254.53125 240.230469 254.53125 C 240.941406 254.53125 241.515625 255.105469 241.515625 255.816406 C 241.515625 256.527344 240.941406 257.105469 240.230469 257.105469 Z M 248.378906 255.816406 C 248.378906 255.105469 248.957031 254.53125 249.667969 254.53125 C 250.378906 254.53125 250.953125 255.105469 250.953125 255.816406 C 250.953125 256.527344 250.378906 257.105469 249.667969 257.105469 Z M 257.816406 255.816406 C 257.816406 255.105469 258.394531 254.53125 259.105469 254.53125 C 259.816406 254.53125 260.390625 255.105469 260.390625 255.816406 C 260.390625 256.527344 259.816406 257.105469 259.105469 257.105469 Z M 267.253906 255.816406 C 267.253906 255.105469 267.832031 254.53125 268.542969 254.53125 C 269.253906 254.53125 269.828125 255.105469 269.828125 255.816406 C 269.828125 256.527344 269.253906 257.105469 268.542969 257.105469 Z M 276.691406 255.816406 C 276.691406 255.105469 277.269531 254.53125 277.980469 254.53125 C 278.691406 254.53125 279.265625 255.105469 279.265625 255.816406 C 279.265625 256.527344 278.691406 257.105469 277.980469 257.105469 Z M 286.128906 255.816406 C 286.128906 255.105469 286.707031 254.53125 287.417969 254.53125 C 288.128906 254.53125 288.703125 255.105469 288.703125 255.816406 C 288.703125 256.527344 288.128906 257.105469 287.417969 257.105469 Z M 210.628906 255.816406 C 210.628906 255.105469 211.207031 254.53125 211.917969 254.53125 C 212.628906 254.53125 213.203125 255.105469 213.203125 255.816406 C 213.203125 256.527344 212.628906 257.105469 211.917969 257.105469 Z M 220.066406 246.375 C 220.066406 245.664062 220.644531 245.085938 221.355469 245.085938 C 222.066406 245.085938 222.640625 245.664062 222.640625 246.375 C 222.640625 247.085938 222.066406 247.660156 221.355469 247.660156 Z M 229.503906 246.375 C 229.503906 245.664062 230.082031 245.085938 230.792969 245.085938 C 231.503906 245.085938 232.078125 245.664062 232.078125 246.375 C 232.078125 247.085938 231.503906 247.660156 230.792969 247.660156 Z M 238.941406 246.375 C 238.941406 245.664062 239.519531 245.085938 240.230469 245.085938 C 240.941406 245.085938 241.515625 245.664062 241.515625 246.375 C 241.515625 247.085938 240.941406 247.660156 240.230469 247.660156 Z M 248.378906 246.375 C 248.378906 245.664062 248.957031 245.085938 249.667969 245.085938 C 250.378906 245.085938 250.953125 245.664062 250.953125 246.375 C 250.953125 247.085938 250.378906 247.660156 249.667969 247.660156 Z M 257.816406 246.375 C 257.816406 245.664062 258.394531 245.085938 259.105469 245.085938 C 259.816406 245.085938 260.390625 245.664062 260.390625 246.375 C 260.390625 247.085938 259.816406 247.660156 259.105469 247.660156 Z M 267.253906 246.375 C 267.253906 245.664062 267.832031 245.085938 268.542969 245.085938 C 269.253906 245.085938 269.828125 245.664062 269.828125 246.375 C 269.828125 247.085938 269.253906 247.660156 268.542969 247.660156 Z M 276.691406 246.375 C 276.691406 245.664062 277.269531 245.085938 277.980469 245.085938 C 278.691406 245.085938 279.265625 245.664062 279.265625 246.375 C 279.265625 247.085938 278.691406 247.660156 277.980469 247.660156 Z M 286.128906 246.375 C 286.128906 245.664062 286.707031 245.085938 287.417969 245.085938 C 288.128906 245.085938 288.703125 245.664062 288.703125 246.375 C 288.703125 247.085938 288.128906 247.660156 287.417969 247.660156 Z M 210.628906 246.375 C 210.628906 245.664062 211.207031 245.085938 211.917969 245.085938 C 212.628906 245.085938 213.203125 245.664062 213.203125 246.375 C 213.203125 247.085938 212.628906 247.660156 211.917969 247.660156 Z M 210.628906 246.375 "/>
</g>
</svg>
